<?xml version="1.0" encoding="utf-8"?>
<!-- Generator: Adobe Illustrator 18.0.0, SVG Export Plug-In . SVG Version: 6.00 Build 0)  -->
<!DOCTYPE svg PUBLIC "-//W3C//DTD SVG 1.1//EN" "http://www.w3.org/Graphics/SVG/1.1/DTD/svg11.dtd">
<svg version="1.1" xmlns="http://www.w3.org/2000/svg" xmlns:xlink="http://www.w3.org/1999/xlink" x="0px" y="0px"
	 viewBox="0 0 960 960" enable-background="new 0 0 960 960" xml:space="preserve">
<g id="Layer_1" display="none">
	
		<image display="inline" overflow="visible" width="250" height="79" xlink:href="../../../../logo.png"  transform="matrix(1 0 0 1 355 440)">
	</image>
</g>
<g id="Layer_4">
	<g>
		<path fill="#31327F" d="M492.1,505.6c-2.2,2.1-5,4.6-8.3,7.6c-3.3,3-6.8,6.1-10.3,9.4c-3.5,3.2-6.9,6.4-10.1,9.5
			c-3.2,3.1-5.7,5.8-7.7,8.1c-0.7,1.9-1.7,3.5-2.8,4.9c-1.2,1.4-2.3,2-3.4,2c-0.8,0-1.3-0.4-1.3-1.1c0-0.5,0.1-0.8,0.4-1.2
			c0.3-0.3,0.5-0.6,0.8-1c0.3-0.3,0.6-0.7,0.8-1.1c0.2-0.4,0.3-0.9,0.3-1.5c0-2.1-0.4-3.9-1.1-5.5c-0.7-1.6-1.7-2.9-3-4
			c-1.3-1.1-2.8-1.9-4.5-2.5c-1.7-0.6-3.6-0.8-5.5-0.8c-0.6,0-1.6,0.2-2.8,0.5c-1.2,0.4-2.5,0.8-4,1.3c-1.5,0.5-3.1,1-4.7,1.4
			c-1.7,0.4-3.2,0.6-4.7,0.6c-0.8,0-1.4-0.1-2-0.4c-0.6-0.3-0.8-0.6-0.8-1.2c0-0.5,0.4-1,1.2-1.3c0.8-0.4,1.8-0.7,3-0.9
			c1.2-0.3,2.6-0.5,4-0.6c1.5-0.1,2.9-0.2,4.3-0.3c1.4-0.1,2.7-0.2,3.9-0.2c1.2,0,2-0.1,2.6-0.1c3.2-1,6.2-2.9,8.9-5.6
			c2.7-2.7,5.4-5.9,7.9-9.6c2.5-3.7,5.1-7.7,7.6-12.1c2.5-4.4,5.2-8.8,8-13.2c-2-0.3-3.9-0.9-5.7-1.7c-1.8-0.8-3.4-1.9-4.8-3.2
			c-1.4-1.3-2.5-2.8-3.3-4.5c-0.8-1.7-1.2-3.6-1.2-5.7c0-1.4,0.3-2.7,0.8-3.9c0.5-1.3,1.3-2.4,2.2-3.3c0.9-0.9,2-1.6,3.3-2.2
			c1.3-0.6,2.7-0.8,4.1-0.8c1.2,0,2.4,0.1,3.6,0.4c1.1,0.3,2.1,0.6,2.9,1l-0.4,1.1c-0.8-0.4-1.7-0.7-2.7-1c-1-0.3-2.2-0.4-3.4-0.4
			c-1.4,0-2.6,0.3-3.7,0.8c-1.1,0.5-2.1,1.2-2.9,2.1c-0.8,0.9-1.4,1.8-1.8,2.9c-0.5,1.1-0.7,2.2-0.7,3.3c0,1.8,0.4,3.5,1.2,5.2
			c0.8,1.6,1.9,3.1,3.3,4.3c1.4,1.3,2.9,2.3,4.7,3.1c1.8,0.8,3.6,1.2,5.6,1.4c1.8-2.8,4-5.6,6.6-8.5c2.6-2.9,5.4-5.4,8.4-7.8
			c3-2.3,6.3-4.2,9.6-5.7c3.4-1.5,6.8-2.2,10.3-2.2c2.5,0,4.4,0.6,5.9,1.7c1.5,1.1,2.2,2.8,2.2,5.2c0,2.1-0.8,4.3-2.5,6.6
			c-1.7,2.3-4,4.4-7,6.3s-6.4,3.5-10.5,4.7c-4,1.2-8.3,1.8-12.9,1.8c-1.1,0-2,0-2.8,0c-0.8,0-1.6-0.1-2.4-0.1
			c-2.4,3.8-4.8,7.6-7.2,11.6c-2.4,4-5.1,7.8-8,11.4c-2.9,3.6-6.1,6.9-9.5,9.9c-3.5,3-7.4,5.3-11.9,7.1l0.2,0.2
			c0.5-0.1,1.1-0.1,1.7-0.2c0.6-0.1,1.3-0.1,2.2-0.1c4.4,0,7.7,1.1,9.9,3.2c2.2,2.1,3.5,4.8,3.9,7.9c2.6-2.9,5.4-5.8,8.4-8.7
			c3-2.9,6-5.7,9.1-8.5c3.1-2.8,6.2-5.6,9.3-8.3c3.1-2.8,6-5.4,8.9-8L492.1,505.6z M495.1,465.1c-2.9,1.6-5.5,3.6-8,5.9
			c-2.5,2.4-4.7,4.9-6.8,7.7c-2,2.8-3.7,5.3-5.1,7.6c0.7,0.1,1.5,0.1,2.2,0.1c0.8,0,1.7,0.1,2.7,0.1c2.9,0,6.1-0.4,9.5-1.2
			c3.4-0.8,6.6-1.9,9.5-3.5c3-1.5,5.4-3.4,7.4-5.6c2-2.2,3-4.8,3-7.8c0-1.9-0.5-3.3-1.5-4.3c-1-1-2.4-1.5-4.3-1.5
			C500.8,462.7,497.9,463.5,495.1,465.1z"/>
		<path fill="#31327F" d="M524.9,505.6c-1,1.6-2.2,3.4-3.6,5.4c-1.5,1.9-3.1,3.9-5,5.8c-1.9,1.9-3.8,3.8-5.9,5.5
			c-2.1,1.8-4.3,3.4-6.6,4.8c-2.3,1.4-4.6,2.5-6.9,3.3c-2.3,0.8-4.6,1.2-6.8,1.2c-2.7,0-4.8-0.7-6.3-2.1c-1.5-1.4-2.2-3.4-2.2-6
			c0-2.9,0.9-5.9,2.6-9c1.7-3.1,3.9-6,6.6-8.7c2.7-2.7,5.6-4.9,8.8-6.6c3.2-1.7,6.2-2.6,9.1-2.6c1.6,0,2.9,0.3,3.8,1
			c0.9,0.7,1.4,1.7,1.4,3c0,1.6-0.8,3.1-2.5,4.5c-1.7,1.5-3.7,2.8-6.2,4s-5,2.3-7.8,3.2c-2.8,0.9-5.3,1.6-7.4,2.1
			c-0.7,1.3-1.3,2.8-1.7,4.4c-0.5,1.6-0.7,3.2-0.7,4.9c0,0.8,0.1,1.5,0.2,2.3c0.2,0.7,0.4,1.4,0.8,2c0.4,0.6,0.8,1.1,1.5,1.5
			c0.6,0.4,1.4,0.6,2.3,0.6c2.1,0,4.6-0.7,7.5-2.1c2.9-1.4,5.8-3.3,8.8-5.6c3-2.3,5.8-5,8.6-8c2.7-3,5.1-6.1,7-9.2L524.9,505.6z
			 M508.4,498.4c-0.5-0.5-1.1-0.7-1.8-0.7c-1.4,0-2.8,0.5-4.4,1.6c-1.6,1.1-3.2,2.4-4.7,4c-1.6,1.6-3,3.3-4.2,5.1
			c-1.3,1.8-2.2,3.4-2.9,4.9c1.4-0.3,3.2-0.8,5.4-1.5c2.1-0.7,4.2-1.7,6.2-2.8c2-1.1,3.7-2.4,5.1-3.8c1.4-1.5,2.1-3,2.1-4.7
			C509.2,499.6,508.9,498.9,508.4,498.4z"/>
		<path fill="#31327F" d="M581.8,487.1c0.2,1.4,0.3,2.5,0.4,3.5c0.1,0.9,0.1,1.9,0.1,3c0,2.9-0.4,5.7-1.2,8.3
			c-0.8,2.6-2,4.9-3.5,6.9c-1.5,2-3.3,3.6-5.5,4.8c-2.2,1.2-4.6,1.8-7.3,1.8c-2.4,0-4.5-0.4-6.4-1.3c-1.8-0.9-3.4-2-4.7-3.5
			c-1.3-1.5-2.2-3.1-2.9-5.1c-0.6-1.9-1-3.9-1-6.1c0-2.9,0.5-5.8,1.7-8.8c1.1-3,2.7-5.9,4.7-8.7c2-2.8,4.5-5.4,7.3-7.9
			c2.9-2.5,6.1-4.6,9.7-6.5c3.6-1.8,7.5-3.3,11.7-4.4c4.2-1.1,8.6-1.6,13.3-1.6c3.8,0,7.2,0.4,10.4,1.1c3.2,0.7,5.9,1.7,8.3,3
			c2.6-1.4,5-2.5,7.1-3.2s4.3-1.2,6.4-1.5v1.2c-2.1,0.3-4.1,0.8-6,1.4c-1.9,0.6-4,1.6-6,3c2.1,1.7,3.6,3.5,4.7,5.3
			c1.1,1.8,1.6,4.1,1.6,6.9c0,2.5-0.6,4.7-1.7,6.7c-1.1,2-2.5,3.7-4.3,5.2c-1.7,1.5-3.7,2.7-5.9,3.6c-2.2,1-4.4,1.7-6.6,2v0.2
			c1.9,0.1,3.6,0.4,5.3,0.9c1.6,0.6,3,1.3,4.2,2.3c1.2,1,2.1,2.3,2.8,3.8c0.7,1.5,1,3.3,1,5.4c0,3.2-0.7,6.1-2.2,8.9
			s-3.4,5.2-5.6,7.2c-2.3,2-4.8,3.6-7.6,4.8c-2.8,1.2-5.5,1.8-8.2,1.8c-3.7,0-6.7-0.8-8.9-2.4c-2.2-1.6-3.4-3.6-3.4-6.1
			c0-1.6,0.5-3,1.5-4.2c1-1.2,2.3-1.8,4-1.8c1,0,1.9,0.4,2.7,1.2c-1.1,0.2-1.9,0.8-2.3,1.9c-0.5,1.1-0.7,2.4-0.7,4
			c0,1.8,0.6,3.2,1.9,4.4c1.3,1.2,3,1.8,5,1.8c3,0,5.6-0.6,7.8-1.9c2.2-1.3,4.1-2.9,5.6-5c1.5-2.1,2.6-4.4,3.4-7.1
			c0.7-2.7,1.1-5.4,1.1-8.2c0-2.1-0.4-3.8-1.1-5.2c-0.7-1.4-1.7-2.5-2.9-3.4c-1.2-0.8-2.7-1.4-4.3-1.8c-1.7-0.3-3.4-0.5-5.3-0.5
			v-1.2c2.9,0,5.6-0.5,7.9-1.5c2.4-1,4.4-2.3,6.1-4.1c1.7-1.8,3-3.8,3.9-6.2c0.9-2.4,1.4-5,1.4-7.8c0-1.5-0.3-3-0.9-4.4
			c-0.6-1.4-1.4-2.7-2.4-3.8c-3.1,2.7-6,6.2-8.8,10.4c-2.8,4.2-5.5,8.7-8.3,13.4c-2.8,4.7-5.6,9.5-8.5,14.2c-2.9,4.7-6,9-9.3,12.8
			s-7,6.9-10.9,9.3c-4,2.4-8.4,3.6-13.2,3.6c-3.4,0-6-0.7-8-2.1c-1.9-1.4-2.9-3.1-2.9-5.2c0-1.3,0.4-2.3,1.1-3.1
			c0.7-0.7,1.7-1.1,2.8-1.1s1.9,0.3,2.5,1c0.6,0.7,0.8,1.5,0.8,2.6c0,0.9-0.3,1.7-0.9,2.3c-0.6,0.6-1.4,0.9-2.3,0.9
			c0.1,0.6,0.5,1.2,1,1.7c0.5,0.5,1.1,0.8,1.8,1.1c0.7,0.3,1.4,0.5,2.1,0.6s1.3,0.1,1.8,0.1c3.2,0,6.1-0.6,8.6-1.8
			c2.5-1.2,4.8-3,7-5.3c2.2-2.3,4.3-5.1,6.4-8.4c2.1-3.3,4.4-7,6.9-11c2.6-4.2,5-8.2,7.2-11.9s4.5-7.2,6.8-10.4
			c2.3-3.2,4.6-6.1,7.1-8.7c2.4-2.6,5.1-4.8,8-6.6c-2.1-1.7-4.6-2.8-7.6-3.5c-3-0.6-6.1-0.9-9.4-0.9c-6,0-11.7,1-17.1,3.1
			c-5.4,2-10.1,4.7-14.1,8.1c-4,3.3-7.2,7.2-9.6,11.5c-2.4,4.3-3.5,8.8-3.5,13.4c0,1.7,0.2,3.5,0.7,5.4c0.5,1.8,1.2,3.5,2.1,5
			c0.9,1.5,2.1,2.7,3.6,3.6c1.4,0.9,3.1,1.4,5.1,1.4c2.4,0,4.6-0.5,6.6-1.6c2-1,3.7-2.5,5.2-4.3c1.4-1.8,2.5-4,3.4-6.6
			c0.8-2.6,1.2-5.3,1.2-8.3c0-1,0-2.1-0.1-3.1c-0.1-1-0.2-2-0.3-3.1L581.8,487.1z"/>
		<path fill="#31327F" d="M667.4,463.1c-5.8,8.8-10.8,16.3-15.1,22.7c-4.3,6.4-7.9,11.9-11,16.4c-3.1,4.5-5.5,8.3-7.5,11.2
			c-1.9,3-3.5,5.4-4.6,7.2c-1.1,1.9-1.9,3.4-2.3,4.5s-0.6,2-0.6,2.8c0,1.6,0.7,2.4,2.1,2.4c1.6,0,3.5-0.7,5.7-2
			c2.2-1.3,4.5-3.1,7-5.4c2.5-2.3,5-5,7.6-8.1s5.1-6.4,7.6-9.9l1.1,0.4c-2.3,3.3-4.8,6.5-7.4,9.6c-2.6,3.1-5.1,5.8-7.5,8
			c-3.2,3-5.9,5.2-8.2,6.5c-2.3,1.4-4.4,2-6.3,2c-2,0-3.5-0.5-4.3-1.4c-0.9-0.9-1.3-2.1-1.3-3.6c0-1.4,0.2-2.8,0.7-4.2
			c0.5-1.5,1.3-3.2,2.5-5.3c1.2-2,2.7-4.5,4.6-7.4c1.9-2.9,4.3-6.5,7.1-10.8c2.8-4.2,6.1-9.3,10-15.2c3.8-5.9,8.2-12.8,13.2-20.7
			H667.4z"/>
		<path fill="#31327F" d="M667.3,497.4c-2.5,3.4-5,6.7-7.3,9.8c-2.3,3.1-4.4,6-6.2,8.6s-3.3,4.9-4.3,6.8c-1.1,1.9-1.6,3.4-1.6,4.5
			c0,1,0.3,1.8,0.8,2.3c0.5,0.5,1.2,0.7,2,0.7c1.2,0,2.6-0.4,4-1.2s3-1.8,4.5-3s3-2.6,4.5-4.1s2.8-3,4.1-4.4c1.3-1.5,2.4-2.8,3.3-4
			c0.9-1.2,1.6-2.2,2.1-2.9l8.6-13h6.7c-3.5,4.8-6.5,8.9-8.9,12.2c-2.4,3.3-4.4,6.2-5.9,8.5c-1.5,2.3-2.6,4.2-3.3,5.7
			c-0.6,1.5-1,2.7-1,3.8c0,0.8,0.2,1.4,0.7,2c0.5,0.6,1.1,0.8,1.9,0.8c1.3,0,2.8-0.5,4.5-1.4c1.7-0.9,3.4-2.2,5.3-3.7
			c1.8-1.5,3.6-3.2,5.4-5.2c1.8-1.9,3.5-3.8,5.1-5.7c1.6-1.9,3-3.6,4.3-5.3c1.3-1.7,2.3-3,3-4l1,0.3c-0.8,1.1-1.8,2.5-3.1,4.2
			c-1.3,1.7-2.8,3.5-4.4,5.4c-1.6,1.9-3.3,3.9-5.2,5.8c-1.8,2-3.7,3.7-5.6,5.3c-1.9,1.6-3.8,2.8-5.6,3.8c-1.8,1-3.6,1.5-5.2,1.5
			c-1.8,0-3.3-0.5-4.3-1.5c-1.1-1-1.6-2.4-1.6-4c0-1.3,0.2-2.5,0.6-3.7c0.4-1.2,0.7-2,0.9-2.3l-0.2-0.2c-1.4,1.6-2.8,3.1-4.3,4.5
			c-1.5,1.4-3,2.7-4.5,3.7c-1.5,1.1-3,1.9-4.5,2.6c-1.5,0.6-3,1-4.5,1c-2.1,0-3.6-0.5-4.5-1.4c-0.9-0.9-1.4-2.1-1.4-3.4
			c0-1.6,0.4-3.4,1.3-5.3s2.1-4,3.6-6.3c1.6-2.3,3.4-5,5.6-7.9c2.2-2.9,4.6-6.3,7.1-10H667.3z"/>
		<path fill="#31327F" d="M732.9,505.6c-1,1.6-2.2,3.4-3.6,5.4c-1.5,1.9-3.1,3.9-5,5.8c-1.8,1.9-3.8,3.8-5.9,5.5
			c-2.1,1.8-4.3,3.4-6.6,4.8c-2.3,1.4-4.6,2.5-6.9,3.3c-2.3,0.8-4.6,1.2-6.8,1.2c-2.7,0-4.8-0.7-6.3-2.1c-1.5-1.4-2.2-3.4-2.2-6
			c0-2.9,0.9-5.9,2.6-9c1.7-3.1,3.9-6,6.6-8.7c2.7-2.7,5.6-4.9,8.8-6.6c3.2-1.7,6.2-2.6,9.1-2.6c1.6,0,2.9,0.3,3.8,1
			c0.9,0.7,1.4,1.7,1.4,3c0,1.6-0.8,3.1-2.5,4.5c-1.7,1.5-3.7,2.8-6.2,4c-2.4,1.2-5,2.3-7.8,3.2c-2.8,0.9-5.3,1.6-7.4,2.1
			c-0.7,1.3-1.3,2.8-1.7,4.4c-0.5,1.6-0.7,3.2-0.7,4.9c0,0.8,0.1,1.5,0.2,2.3c0.2,0.7,0.4,1.4,0.8,2c0.4,0.6,0.8,1.1,1.5,1.5
			c0.6,0.4,1.4,0.6,2.3,0.6c2.1,0,4.7-0.7,7.5-2.1c2.9-1.4,5.8-3.3,8.8-5.6c3-2.3,5.8-5,8.6-8c2.7-3,5.1-6.1,7-9.2L732.9,505.6z
			 M716.4,498.4c-0.5-0.5-1.1-0.7-1.8-0.7c-1.4,0-2.8,0.5-4.4,1.6c-1.6,1.1-3.2,2.4-4.7,4c-1.6,1.6-3,3.3-4.2,5.1
			c-1.3,1.8-2.2,3.4-2.9,4.9c1.4-0.3,3.2-0.8,5.4-1.5c2.1-0.7,4.2-1.7,6.2-2.8c2-1.1,3.7-2.4,5.1-3.8c1.4-1.5,2.1-3,2.1-4.7
			C717.1,499.6,716.9,498.9,716.4,498.4z"/>
	</g>
</g>
<g id="le-blue">
	<linearGradient id="SVGID_1_" gradientUnits="userSpaceOnUse" x1="246.9325" y1="483.7171" x2="236.1413" y2="514.2584">
		<stop  offset="0" style="stop-color:#96C34A"/>
		<stop  offset="0.2967" style="stop-color:#92C24B"/>
		<stop  offset="0.5984" style="stop-color:#86BD4E"/>
		<stop  offset="0.9015" style="stop-color:#71B654"/>
		<stop  offset="0.9673" style="stop-color:#6CB455"/>
	</linearGradient>
	<path fill="url(#SVGID_1_)" d="M275.1,530.3c-7.4-0.7-18.7-0.1-24.8-0.1s-16.9,0.8-24.3-2.6c-7.4-3.4-10.8-11.8-14.9-17.8
		c-4-5.9-6.6-12.7-11.5-14.9c-4.5-2,8.3-5.8,14.9-7.2c7-1.5,22.7-3.2,28.7-2.5c6,0.8,15,7.2,19,11.9c4.1,4.7,9,16.2,9,16.2
		s-9.6-7-16-9.6c-5.4-2.2-15.6-3.3-17.9-2.8c-0.8,0.2,11.8,3.1,15.5,5c7.2,3.6,12.1,9.5,15.4,13.6
		C271.6,523.6,275.1,530.3,275.1,530.3z"/>
	
		<linearGradient id="SVGID_2_" gradientUnits="userSpaceOnUse" x1="288.1351" y1="574.5937" x2="328.8602" y2="615.9785" gradientTransform="matrix(0.772 0.6087 -0.5838 0.7403 377.9532 -166.1143)">
		<stop  offset="0" style="stop-color:#96C34A"/>
		<stop  offset="0.2967" style="stop-color:#92C24B"/>
		<stop  offset="0.5984" style="stop-color:#86BD4E"/>
		<stop  offset="0.9015" style="stop-color:#71B654"/>
		<stop  offset="0.9673" style="stop-color:#6CB455"/>
	</linearGradient>
	<path fill="url(#SVGID_2_)" d="M284.2,507.4c-5.3-5-14.4-11.5-19.1-15.2s-13.5-9.7-17.3-16.7s-2.3-15.7-2.2-22.6
		c0.1-7.4,0.3-17.8,0.8-21.7c0,0,8.2,5.3,14.3,8c6.2,2.7,21.1,8.8,25.3,13c4.2,4.2,7,13.9,7.4,19.9c0.4,6-1.7,20.9-1.7,20.9
		s-3.4-11.7-7.2-17.4c-3.1-4.8-8.7-10.6-10.7-11.6c-0.7-0.3,5.6,7.2,7.3,10.8c3.5,7.1,3.9,13,4.6,17.9
		C286.4,497.8,284.2,507.4,284.2,507.4z"/>
	
		<linearGradient id="SVGID_3_" gradientUnits="userSpaceOnUse" x1="318.8082" y1="445.2665" x2="321.0985" y2="486.1744" gradientTransform="matrix(0.9996 2.873783e-02 -2.873783e-02 0.9996 13.6392 -13.59)">
		<stop  offset="0" style="stop-color:#96C34A"/>
		<stop  offset="0.2967" style="stop-color:#92C24B"/>
		<stop  offset="0.5984" style="stop-color:#86BD4E"/>
		<stop  offset="0.9015" style="stop-color:#71B654"/>
		<stop  offset="0.9673" style="stop-color:#6CB455"/>
	</linearGradient>
	<path fill="url(#SVGID_3_)" d="M297.4,505c1-7.4,0.9-18.7,1.2-24.7c0.3-6.1-0.1-16.9,3.6-24.2c3.7-7.3,12.3-10.3,18.4-14.1
		c6.1-3.8,12.9-6,15.3-10.8c2.2-4.4,5.5,8.5,6.6,15.2c1.2,7,2.3,22.8,1.2,28.8c-1,6-7.8,14.6-12.7,18.5s-16.6,8.3-16.6,8.3
		s7.4-9.3,10.3-15.6c2.4-5.3,4-15.5,3.6-17.8c-0.1-0.8-3.6,11.7-5.6,15.3c-3.9,7-10,11.7-14.3,14.8C304.1,501.8,297.4,505,297.4,505
		z"/>
	
		<linearGradient id="SVGID_4_" gradientUnits="userSpaceOnUse" x1="599.7245" y1="459.5771" x2="616.1622" y2="494.7824" gradientTransform="matrix(-0.9995 -3.037613e-02 -3.037613e-02 0.9995 983.7001 40.3029)">
		<stop  offset="0" style="stop-color:#96C34A"/>
		<stop  offset="0.2967" style="stop-color:#92C24B"/>
		<stop  offset="0.5984" style="stop-color:#86BD4E"/>
		<stop  offset="0.9015" style="stop-color:#71B654"/>
		<stop  offset="0.9673" style="stop-color:#6CB455"/>
	</linearGradient>
	<path fill="url(#SVGID_4_)" d="M317.8,529.9c7.4-0.4,18.7,0.5,24.8,0.6c6.1,0.2,16.9,1.3,24.4-1.8c7.5-3.2,11.2-11.5,15.4-17.3
		c4.2-5.8,7-12.5,11.9-14.5c4.6-1.9-8.1-6.1-14.6-7.7c-6.9-1.7-22.6-3.9-28.6-3.3c-6.1,0.6-15.2,6.7-19.4,11.4
		c-4.2,4.6-9.5,15.9-9.5,15.9s9.8-6.7,16.3-9.1c5.5-2,15.7-2.8,18-2.3c0.8,0.2-11.9,2.7-15.7,4.5c-7.3,3.4-12.4,9.1-15.8,13.1
		C321.4,523.3,317.8,529.9,317.8,529.9z"/>
	<g display="none">
		<path display="inline" fill="#31327F" d="M446.1,506.8c-0.5,0.5-1.2,1.1-2.1,1.9c-0.8,0.7-1.7,1.5-2.5,2.3s-1.7,1.6-2.5,2.4
			c-0.8,0.8-1.4,1.4-1.9,2c-0.2,0.5-0.4,0.9-0.7,1.2s-0.6,0.5-0.8,0.5c-0.2,0-0.3-0.1-0.3-0.3c0-0.1,0-0.2,0.1-0.3
			c0.1-0.1,0.1-0.2,0.2-0.2c0.1-0.1,0.1-0.2,0.2-0.3c0.1-0.1,0.1-0.2,0.1-0.4c0-0.5-0.1-1-0.3-1.4c-0.2-0.4-0.4-0.7-0.7-1
			c-0.3-0.3-0.7-0.5-1.1-0.6c-0.4-0.1-0.9-0.2-1.4-0.2c-0.2,0-0.4,0-0.7,0.1c-0.3,0.1-0.6,0.2-1,0.3c-0.4,0.1-0.8,0.2-1.2,0.3
			c-0.4,0.1-0.8,0.2-1.2,0.2c-0.2,0-0.4,0-0.5-0.1c-0.1-0.1-0.2-0.2-0.2-0.3s0.1-0.2,0.3-0.3s0.4-0.2,0.7-0.2c0.3-0.1,0.6-0.1,1-0.1
			c0.4,0,0.7-0.1,1.1-0.1c0.4,0,0.7,0,1,0c0.3,0,0.5,0,0.6,0c0.8-0.3,1.5-0.7,2.2-1.4c0.7-0.7,1.3-1.5,1.9-2.4
			c0.6-0.9,1.2-1.9,1.9-3s1.3-2.2,2-3.3c-0.5-0.1-1-0.2-1.4-0.4s-0.8-0.5-1.2-0.8s-0.6-0.7-0.8-1.1s-0.3-0.9-0.3-1.4
			c0-0.3,0.1-0.7,0.2-1c0.1-0.3,0.3-0.6,0.5-0.8c0.2-0.2,0.5-0.4,0.8-0.5c0.3-0.1,0.7-0.2,1-0.2c0.3,0,0.6,0,0.9,0.1
			c0.3,0.1,0.5,0.2,0.7,0.3l-0.1,0.3c-0.2-0.1-0.4-0.2-0.7-0.2c-0.3-0.1-0.5-0.1-0.8-0.1c-0.3,0-0.6,0.1-0.9,0.2
			c-0.3,0.1-0.5,0.3-0.7,0.5c-0.2,0.2-0.3,0.5-0.5,0.7c-0.1,0.3-0.2,0.5-0.2,0.8c0,0.4,0.1,0.9,0.3,1.3c0.2,0.4,0.5,0.8,0.8,1.1
			c0.3,0.3,0.7,0.6,1.2,0.8c0.4,0.2,0.9,0.3,1.4,0.3c0.4-0.7,1-1.4,1.6-2.1c0.6-0.7,1.3-1.3,2.1-1.9c0.8-0.6,1.5-1,2.4-1.4
			c0.8-0.4,1.7-0.5,2.5-0.5c0.6,0,1.1,0.1,1.5,0.4c0.4,0.3,0.5,0.7,0.5,1.3c0,0.5-0.2,1.1-0.6,1.6c-0.4,0.6-1,1.1-1.7,1.5
			c-0.7,0.5-1.6,0.9-2.6,1.2c-1,0.3-2.1,0.4-3.2,0.4c-0.3,0-0.5,0-0.7,0c-0.2,0-0.4,0-0.6,0c-0.6,0.9-1.2,1.9-1.8,2.9
			c-0.6,1-1.3,1.9-2,2.8s-1.5,1.7-2.4,2.4c-0.9,0.7-1.8,1.3-2.9,1.8l0,0c0.1,0,0.3,0,0.4,0c0.2,0,0.3,0,0.5,0c1.1,0,1.9,0.3,2.4,0.8
			s0.9,1.2,1,1.9c0.6-0.7,1.3-1.4,2.1-2.1c0.7-0.7,1.5-1.4,2.3-2.1c0.8-0.7,1.5-1.4,2.3-2.1s1.5-1.3,2.2-2L446.1,506.8z
			 M446.9,496.8c-0.7,0.4-1.4,0.9-2,1.5c-0.6,0.6-1.2,1.2-1.7,1.9c-0.5,0.7-0.9,1.3-1.3,1.9c0.2,0,0.4,0,0.6,0c0.2,0,0.4,0,0.7,0
			c0.7,0,1.5-0.1,2.3-0.3s1.6-0.5,2.4-0.9s1.3-0.8,1.8-1.4c0.5-0.6,0.7-1.2,0.7-1.9c0-0.5-0.1-0.8-0.4-1.1c-0.2-0.2-0.6-0.4-1.1-0.4
			C448.3,496.2,447.6,496.4,446.9,496.8z"/>
		<path display="inline" fill="#31327F" d="M454.2,506.8c-0.2,0.4-0.5,0.8-0.9,1.3c-0.4,0.5-0.8,1-1.2,1.4s-0.9,0.9-1.5,1.4
			c-0.5,0.4-1.1,0.8-1.6,1.2s-1.1,0.6-1.7,0.8c-0.6,0.2-1.1,0.3-1.7,0.3c-0.7,0-1.2-0.2-1.6-0.5c-0.4-0.3-0.6-0.8-0.6-1.5
			c0-0.7,0.2-1.4,0.6-2.2c0.4-0.8,1-1.5,1.6-2.1c0.7-0.7,1.4-1.2,2.2-1.6c0.8-0.4,1.5-0.6,2.3-0.6c0.4,0,0.7,0.1,0.9,0.3
			c0.2,0.2,0.3,0.4,0.3,0.7c0,0.4-0.2,0.8-0.6,1.1c-0.4,0.4-0.9,0.7-1.5,1c-0.6,0.3-1.2,0.6-1.9,0.8c-0.7,0.2-1.3,0.4-1.8,0.5
			c-0.2,0.3-0.3,0.7-0.4,1.1c-0.1,0.4-0.2,0.8-0.2,1.2c0,0.2,0,0.4,0.1,0.6c0,0.2,0.1,0.4,0.2,0.5c0.1,0.2,0.2,0.3,0.4,0.4
			c0.2,0.1,0.3,0.1,0.6,0.1c0.5,0,1.1-0.2,1.9-0.5c0.7-0.3,1.4-0.8,2.2-1.4c0.7-0.6,1.4-1.2,2.1-2c0.7-0.7,1.2-1.5,1.7-2.3
			L454.2,506.8z M450.2,505c-0.1-0.1-0.3-0.2-0.4-0.2c-0.3,0-0.7,0.1-1.1,0.4c-0.4,0.3-0.8,0.6-1.2,1c-0.4,0.4-0.7,0.8-1,1.3
			c-0.3,0.4-0.5,0.8-0.7,1.2c0.4-0.1,0.8-0.2,1.3-0.4c0.5-0.2,1-0.4,1.5-0.7c0.5-0.3,0.9-0.6,1.3-0.9c0.4-0.4,0.5-0.7,0.5-1.2
			C450.3,505.3,450.3,505.2,450.2,505z"/>
		<path display="inline" fill="#31327F" d="M468.3,502.3c0,0.3,0.1,0.6,0.1,0.9c0,0.2,0,0.5,0,0.7c0,0.7-0.1,1.4-0.3,2
			c-0.2,0.6-0.5,1.2-0.9,1.7c-0.4,0.5-0.8,0.9-1.4,1.2c-0.5,0.3-1.1,0.4-1.8,0.4c-0.6,0-1.1-0.1-1.6-0.3s-0.8-0.5-1.2-0.9
			c-0.3-0.4-0.5-0.8-0.7-1.2c-0.2-0.5-0.2-1-0.2-1.5c0-0.7,0.1-1.4,0.4-2.2c0.3-0.7,0.7-1.4,1.2-2.1c0.5-0.7,1.1-1.3,1.8-1.9
			c0.7-0.6,1.5-1.1,2.4-1.6s1.8-0.8,2.9-1.1c1-0.3,2.1-0.4,3.3-0.4c0.9,0,1.8,0.1,2.6,0.3c0.8,0.2,1.5,0.4,2,0.7
			c0.6-0.4,1.2-0.6,1.8-0.8c0.5-0.2,1.1-0.3,1.6-0.4v0.3c-0.5,0.1-1,0.2-1.5,0.3c-0.5,0.2-1,0.4-1.5,0.7c0.5,0.4,0.9,0.9,1.2,1.3
			c0.3,0.5,0.4,1,0.4,1.7c0,0.6-0.1,1.2-0.4,1.7c-0.3,0.5-0.6,0.9-1.1,1.3c-0.4,0.4-0.9,0.7-1.5,0.9c-0.5,0.2-1.1,0.4-1.6,0.5v0
			c0.5,0,0.9,0.1,1.3,0.2c0.4,0.1,0.7,0.3,1,0.6s0.5,0.6,0.7,0.9c0.2,0.4,0.3,0.8,0.3,1.3c0,0.8-0.2,1.5-0.6,2.2
			c-0.4,0.7-0.8,1.3-1.4,1.8c-0.6,0.5-1.2,0.9-1.9,1.2s-1.4,0.4-2,0.4c-0.9,0-1.6-0.2-2.2-0.6c-0.6-0.4-0.8-0.9-0.8-1.5
			c0-0.4,0.1-0.7,0.4-1s0.6-0.4,1-0.4c0.3,0,0.5,0.1,0.7,0.3c-0.3,0-0.5,0.2-0.6,0.5c-0.1,0.3-0.2,0.6-0.2,1c0,0.4,0.2,0.8,0.5,1.1
			c0.3,0.3,0.7,0.4,1.2,0.4c0.7,0,1.4-0.2,1.9-0.5c0.6-0.3,1-0.7,1.4-1.2c0.4-0.5,0.6-1.1,0.8-1.8c0.2-0.7,0.3-1.3,0.3-2
			c0-0.5-0.1-0.9-0.3-1.3c-0.2-0.3-0.4-0.6-0.7-0.8c-0.3-0.2-0.7-0.4-1.1-0.4c-0.4-0.1-0.8-0.1-1.3-0.1v-0.3c0.7,0,1.4-0.1,2-0.4
			s1.1-0.6,1.5-1c0.4-0.4,0.7-0.9,1-1.5c0.2-0.6,0.3-1.2,0.3-1.9c0-0.4-0.1-0.7-0.2-1.1s-0.3-0.7-0.6-0.9c-0.8,0.7-1.5,1.5-2.2,2.6
			c-0.7,1-1.4,2.1-2,3.3c-0.7,1.2-1.4,2.3-2.1,3.5s-1.5,2.2-2.3,3.2s-1.7,1.7-2.7,2.3s-2.1,0.9-3.3,0.9c-0.8,0-1.5-0.2-2-0.5
			c-0.5-0.4-0.7-0.8-0.7-1.3c0-0.3,0.1-0.6,0.3-0.8s0.4-0.3,0.7-0.3c0.3,0,0.5,0.1,0.6,0.3s0.2,0.4,0.2,0.6c0,0.2-0.1,0.4-0.2,0.6
			c-0.2,0.2-0.3,0.2-0.6,0.2c0,0.2,0.1,0.3,0.2,0.4c0.1,0.1,0.3,0.2,0.4,0.3c0.2,0.1,0.3,0.1,0.5,0.1c0.2,0,0.3,0,0.5,0
			c0.8,0,1.5-0.2,2.1-0.5c0.6-0.3,1.2-0.7,1.7-1.3c0.5-0.6,1.1-1.3,1.6-2.1c0.5-0.8,1.1-1.7,1.7-2.7c0.6-1,1.2-2,1.8-2.9
			c0.6-0.9,1.1-1.8,1.7-2.6c0.6-0.8,1.1-1.5,1.7-2.1s1.3-1.2,2-1.6c-0.5-0.4-1.1-0.7-1.9-0.9c-0.7-0.2-1.5-0.2-2.3-0.2
			c-1.5,0-2.9,0.3-4.2,0.8s-2.5,1.2-3.5,2s-1.8,1.8-2.4,2.8s-0.9,2.2-0.9,3.3c0,0.4,0.1,0.9,0.2,1.3s0.3,0.9,0.5,1.2
			c0.2,0.4,0.5,0.7,0.9,0.9c0.4,0.2,0.8,0.3,1.2,0.3c0.6,0,1.1-0.1,1.6-0.4c0.5-0.3,0.9-0.6,1.3-1.1c0.4-0.4,0.6-1,0.8-1.6
			c0.2-0.6,0.3-1.3,0.3-2.1c0-0.3,0-0.5,0-0.8c0-0.2,0-0.5-0.1-0.8L468.3,502.3z"/>
		<path display="inline" fill="#31327F" d="M489.4,496.3c-1.4,2.2-2.7,4-3.7,5.6c-1.1,1.6-2,2.9-2.7,4c-0.8,1.1-1.4,2-1.8,2.8
			c-0.5,0.7-0.9,1.3-1.1,1.8c-0.3,0.5-0.5,0.8-0.6,1.1c-0.1,0.3-0.2,0.5-0.2,0.7c0,0.4,0.2,0.6,0.5,0.6c0.4,0,0.9-0.2,1.4-0.5
			s1.1-0.8,1.7-1.3c0.6-0.6,1.2-1.2,1.9-2s1.3-1.6,1.9-2.4l0.3,0.1c-0.6,0.8-1.2,1.6-1.8,2.4c-0.6,0.8-1.3,1.4-1.8,2
			c-0.8,0.7-1.5,1.3-2,1.6c-0.6,0.3-1.1,0.5-1.5,0.5c-0.5,0-0.9-0.1-1.1-0.3c-0.2-0.2-0.3-0.5-0.3-0.9c0-0.3,0.1-0.7,0.2-1
			c0.1-0.4,0.3-0.8,0.6-1.3s0.7-1.1,1.1-1.8c0.5-0.7,1.1-1.6,1.8-2.7c0.7-1,1.5-2.3,2.5-3.7c0.9-1.4,2-3.1,3.3-5.1H489.4z"/>
		<path display="inline" fill="#31327F" d="M489.4,504.8c-0.6,0.8-1.2,1.7-1.8,2.4c-0.6,0.8-1.1,1.5-1.5,2.1
			c-0.4,0.6-0.8,1.2-1.1,1.7s-0.4,0.8-0.4,1.1c0,0.3,0.1,0.4,0.2,0.6s0.3,0.2,0.5,0.2c0.3,0,0.6-0.1,1-0.3c0.4-0.2,0.7-0.4,1.1-0.7
			c0.4-0.3,0.7-0.6,1.1-1c0.4-0.4,0.7-0.7,1-1.1c0.3-0.4,0.6-0.7,0.8-1c0.2-0.3,0.4-0.5,0.5-0.7l2.1-3.2h1.7c-0.9,1.2-1.6,2.2-2.2,3
			s-1.1,1.5-1.5,2.1c-0.4,0.6-0.6,1-0.8,1.4c-0.2,0.4-0.2,0.7-0.2,0.9c0,0.2,0.1,0.4,0.2,0.5c0.1,0.1,0.3,0.2,0.5,0.2
			c0.3,0,0.7-0.1,1.1-0.3c0.4-0.2,0.8-0.5,1.3-0.9c0.4-0.4,0.9-0.8,1.3-1.3c0.4-0.5,0.9-0.9,1.2-1.4c0.4-0.5,0.7-0.9,1.1-1.3
			s0.6-0.7,0.7-1l0.2,0.1c-0.2,0.3-0.4,0.6-0.8,1c-0.3,0.4-0.7,0.9-1.1,1.3c-0.4,0.5-0.8,1-1.3,1.4s-0.9,0.9-1.4,1.3
			s-0.9,0.7-1.4,0.9s-0.9,0.4-1.3,0.4c-0.4,0-0.8-0.1-1.1-0.4c-0.3-0.2-0.4-0.6-0.4-1c0-0.3,0.1-0.6,0.2-0.9
			c0.1-0.3,0.2-0.5,0.2-0.6l0,0c-0.3,0.4-0.7,0.8-1.1,1.1c-0.4,0.4-0.7,0.7-1.1,0.9c-0.4,0.3-0.7,0.5-1.1,0.6
			c-0.4,0.2-0.7,0.2-1.1,0.2c-0.5,0-0.9-0.1-1.1-0.3c-0.2-0.2-0.3-0.5-0.3-0.8c0-0.4,0.1-0.8,0.3-1.3c0.2-0.5,0.5-1,0.9-1.6
			s0.8-1.2,1.4-1.9s1.1-1.5,1.8-2.5H489.4z"/>
		<path display="inline" fill="#31327F" d="M505.5,506.8c-0.2,0.4-0.5,0.8-0.9,1.3c-0.4,0.5-0.8,1-1.2,1.4s-0.9,0.9-1.5,1.4
			c-0.5,0.4-1.1,0.8-1.6,1.2c-0.6,0.3-1.1,0.6-1.7,0.8c-0.6,0.2-1.1,0.3-1.7,0.3c-0.7,0-1.2-0.2-1.6-0.5s-0.6-0.8-0.6-1.5
			c0-0.7,0.2-1.4,0.6-2.2c0.4-0.8,1-1.5,1.6-2.1s1.4-1.2,2.2-1.6c0.8-0.4,1.5-0.6,2.3-0.6c0.4,0,0.7,0.1,0.9,0.3
			c0.2,0.2,0.3,0.4,0.3,0.7c0,0.4-0.2,0.8-0.6,1.1c-0.4,0.4-0.9,0.7-1.5,1c-0.6,0.3-1.2,0.6-1.9,0.8c-0.7,0.2-1.3,0.4-1.8,0.5
			c-0.2,0.3-0.3,0.7-0.4,1.1c-0.1,0.4-0.2,0.8-0.2,1.2c0,0.2,0,0.4,0.1,0.6c0,0.2,0.1,0.4,0.2,0.5s0.2,0.3,0.4,0.4s0.3,0.1,0.6,0.1
			c0.5,0,1.1-0.2,1.9-0.5c0.7-0.3,1.4-0.8,2.2-1.4c0.7-0.6,1.4-1.2,2.1-2c0.7-0.7,1.2-1.5,1.7-2.3L505.5,506.8z M501.5,505
			c-0.1-0.1-0.3-0.2-0.4-0.2c-0.3,0-0.7,0.1-1.1,0.4c-0.4,0.3-0.8,0.6-1.2,1c-0.4,0.4-0.7,0.8-1,1.3c-0.3,0.4-0.5,0.8-0.7,1.2
			c0.4-0.1,0.8-0.2,1.3-0.4c0.5-0.2,1-0.4,1.5-0.7c0.5-0.3,0.9-0.6,1.3-0.9c0.4-0.4,0.5-0.7,0.5-1.2
			C501.6,505.3,501.6,505.2,501.5,505z"/>
	</g>
</g>
<g id="colors-ref" display="none">
	<g display="inline">
		<text transform="matrix(1 0 0 1 381.5 441)" fill="#31327F" font-family="'Helvetica-Light'" font-size="6">Snell Roundhand</text>
	</g>
	<rect x="369.2" y="436.7" display="inline" fill="#31327F" width="11.3" height="10.4"/>
	
		<text transform="matrix(1 0 0 1 381.6668 446.3333)" display="inline" fill="#31327F" font-family="'Helvetica-Light'" font-size="6">#31327F</text>
	<linearGradient id="SVGID_5_" gradientUnits="userSpaceOnUse" x1="369.0833" y1="459.702" x2="380.3434" y2="459.702">
		<stop  offset="0" style="stop-color:#96C34A"/>
		<stop  offset="0.2967" style="stop-color:#92C24B"/>
		<stop  offset="0.5984" style="stop-color:#86BD4E"/>
		<stop  offset="0.9015" style="stop-color:#71B654"/>
		<stop  offset="0.9673" style="stop-color:#6CB455"/>
	</linearGradient>
	<rect x="369.1" y="454.5" display="inline" fill="url(#SVGID_5_)" width="11.3" height="10.4"/>
	<rect x="382" y="461.3" display="inline" fill="#96C34A" width="4.7" height="3.7"/>
	<rect x="396.3" y="461.4" display="inline" fill="#6CB455" width="4.7" height="3.7"/>
	<text transform="matrix(1 0 0 1 387.0002 464.75)" display="inline" font-family="'SnellRoundhand'" font-size="6">=&gt;</text>
</g>
</svg>
